% Problem dimension
NDIME= 3    
%
% Inner element connectivity
%
NELEM= 123  
10    20   21   23   37    0
10    29   20   23   37    1
10    22    9   14   39    2
10    29   31   30   47    3
10    27   30   45   47    4
10    23   14   46   47    5
10    39   38   44   47    6
10    24   25   27   30    7
10    11    7   12   46    8
10     9    8   14   10    9
10    38   27   44   47   10
10    36   38   40   47   11
10    42   41   27   44   12
10    42   26   32   44   13
10    40   23   37   47   14
10    29   13   46   47   15
10    13   14   15   46   16
10    21   40   23   37   17
10     6    7   11   46   18
10     8   14   10   12   19
10    19    6   45   46   20
10    23   40   14   47   21
10    31   25   30   45   22
10    26   11   44   45   23
10    36   40   37   47   24
10    20   29   23   13   25
10     6    5    7   46   26
10     6   26   18   45   27
10    10   11   12   44   28
10     8   12    2   15   29
10    22   21   40   23   30
10    30   31   45   47   31
10    40   38   39   47   32
10    41   38   27   44   33
10     5   29   13   46   34
10    29   23   13   47   35
10     7    6   11    1   36
10    31   17   19   45   37
10     5   19   45   46   38
10    14   10   12   46   39
10    38   24   27   30   40
10     7   12    2    1   41
10    12    7    2   15   42
10     6   11   45   46   43
10    26   11   32   44   44
10    10   34   35   44   45
10    27   25   28   45   46
10    35   42   32   44   47
10    14   12   15   46   48
10    29    5   17   45   49
10    12    7   15   46   50
10    10   14   44   46   51
10    14    9   10   39   52
10    26   42   27   44   53
10    27   38   30   47   54
10    34   10   39   44   55
10    34   43   35   44   56
10    21   36   40   37   57
10    43   34   39   44   58
10    31   16   28   19   59
10    38   41   43   44   60
10    41   42   43   44   61
10    11   44   45   46   62
10    20   29   13    4   63
10     5    6   19   46   64
10     2    7    3   15   65
10    17    5   19   45   66
10    26   27   28   45   67
10    44   27   45   47   68
10     7   11   12    1   69
10    11   12   44   46   70
10    37   29   30   47   71
10    29    5   45   46   72
10    40   22   23   14   73
10    23   29   37   47   74
10    14   39   44   47   75
10     5    3   13    4   76
10    43   42   35   44   77
10     6   18   19   45   78
10    16   31   17   19   79
10    38   36   30   47   80
10    26   11    0   32   81
10    18   28   19   45   82
10     6   26   11    0   83
10    28   31   19   45   84
10    11   35   32   44   85
10    31   29   17   45   86
10    25   31   28   45   87
10    38   43   39   44   88
10    25   27   30   45   89
10     3    5   13   46   90
10    23   14   13   46   91
10    12   10   44   46   92
10    11    6    0    1   93
10     3   13   15   46   94
10    11   10   35   44   95
10    38   36   24   30   96
10    31   29   45   47   97
10    10   14   39   44   98
10    13   23   46   47   99
10    10    9   34   39  100
10    40   22   14   39  101
10    45   29   46   47  102
10    41   42   33   43  103
10    44   45   46   47  104
10    14   44   46   47  105
10    36   37   30   47  106
10    42   33   43   35  107
10    33   34   43   35  108
10    14   40   39   47  109
10     6   26    0   18  110
10    26   28   18   45  111
10    42   33   35   32  112
10    29    5   13    4  113
10    41   38   24   27  114
10    27   26   44   45  115
10    26    6   11   45  116
10     8   14   12   15  117
10     7    5    3   46  118
10    31   16   25   28  119
10    29    5    4   17  120
10     7    3   15   46  121
10    28   16   18   19  122
%
% Node coordinates
%
NPOIN= 48   
       0.000000000000000        0.000000000000000        0.000000000000000    0
       0.000000000000000        0.000000000000000       0.5000000000000000    1
       0.000000000000000        0.000000000000000        1.000000000000000    2
       0.000000000000000       0.5000000000000000        1.000000000000000    3
       0.000000000000000        1.000000000000000        1.000000000000000    4
       0.000000000000000       0.6666666666666666       0.6666666666666666    5
       0.000000000000000       0.3333333333333333       0.3333333333333333    6
       0.000000000000000       0.3000000000000000       0.7000000000000000    7
      0.5000000000000000        0.000000000000000        1.000000000000000    8
       1.000000000000000        0.000000000000000        1.000000000000000    9
      0.6666666666666667        0.000000000000000       0.6666666666666667   10
      0.3333333333333334        0.000000000000000       0.3333333333333334   11
      0.3000000000000000        0.000000000000000       0.7000000000000000   12
      0.3333333333333333       0.6666666666666667        1.000000000000000   13
      0.6666666666666666       0.3333333333333334        1.000000000000000   14
      0.3000000000000000       0.3000000000000000        1.000000000000000   15
       0.000000000000000        1.000000000000000        0.000000000000000   16
       0.000000000000000        1.000000000000000       0.5000000000000000   17
       0.000000000000000       0.5000000000000000        0.000000000000000   18
       0.000000000000000       0.7000000000000000       0.3000000000000000   19
      0.5000000000000000        1.000000000000000        1.000000000000000   20
       1.000000000000000        1.000000000000000        1.000000000000000   21
       1.000000000000000       0.5000000000000000        1.000000000000000   22
      0.7000000000000000       0.7000000000000000        1.000000000000000   23
       1.000000000000000        1.000000000000000        0.000000000000000   24
      0.5000000000000000        1.000000000000000        0.000000000000000   25
      0.3333333333333333       0.3333333333333333        0.000000000000000   26
      0.6666666666666666       0.6666666666666666        0.000000000000000   27
      0.2999999999999998       0.7000000000000000        0.000000000000000   28
      0.3333333333333334        1.000000000000000       0.6666666666666666   29
      0.6666666666666667        1.000000000000000       0.3333333333333333   30
      0.3000000000000000        1.000000000000000       0.2999999999999999   31
      0.5000000000000000        0.000000000000000        0.000000000000000   32
       1.000000000000000        0.000000000000000        0.000000000000000   33
       1.000000000000000        0.000000000000000       0.5000000000000000   34
      0.7000000000000000        0.000000000000000       0.3000000000000000   35
       1.000000000000000        1.000000000000000       0.5000000000000000   36
      0.7000000000000000        1.000000000000000       0.7000000000000000   37
       1.000000000000000       0.6666666666666666       0.3333333333333334   38
       1.000000000000000       0.3333333333333333       0.6666666666666667   39
       1.000000000000000       0.7000000000000000       0.7000000000000001   40
       1.000000000000000       0.5000000000000000        0.000000000000000   41
      0.7000000000000001       0.3000000000000000        0.000000000000000   42
       1.000000000000000       0.2999999999999999       0.3000000000000000   43
      0.6327759351411198       0.3235548521676069       0.3542529325075180   44
      0.3579410721121420       0.6610130062144710       0.3363639010294507   45
      0.2634623849862550       0.3935878820187511       0.6824453629695989   46
      0.6258964117849442       0.7486441829843197       0.5531760245777817   47
%
% Boundary elements
%
NMARK= 2    
MARKER_TAG= Unspecified
MARKER_ELEMS= 70   
 5     5    7    6
 5     0    6    1
 5     4    3    5
 5     6    7    1
 5     2    1    7
 5     2    7    3
 5     5    3    7
 5    11   12   10
 5     1   11    0
 5    10    8    9
 5    11    1   12
 5    12    1    2
 5     8   12    2
 5    10   12    8
 5    14   15   13
 5     8   14    9
 5    13    3    4
 5    14    8   15
 5    15    8    2
 5     3   15    2
 5    13   15    3
 5     6   19    5
 5    18    6    0
 5     5   17    4
 5     6   18   19
 5    19   18   16
 5    17   19   16
 5     5   19   17
 5    13   23   14
 5    20   13    4
 5    14   22    9
 5    13   20   23
 5    23   20   21
 5    22   23   21
 5    14   23   22
 5    29   31   30
 5    24   30   25
 5     4   17   29
 5    30   31   25
 5    16   25   31
 5    16   31   17
 5    17   31   29
 5    10   35   11
 5     0   11   32
 5     9   34   10
 5    35   32   11
 5    33   32   35
 5    33   35   34
 5    34   35   10
 5    30   37   29
 5     4   29   20
 5    24   36   30
 5    37   20   29
 5    21   20   37
 5    21   37   36
 5    36   37   30
 5    40   22   21
 5    38   36   24
 5    40   38   39
 5    40   39   22
 5    22   39    9
 5    40   21   36
 5    38   40   36
 5    43   33   34
 5    43   34   39
 5    39   34    9
 5    41   38   24
 5    41   43   38
 5    43   41   33
 5    39   38   43
MARKER_TAG= fixed
MARKER_ELEMS= 14   
 5    27   28   26
 5    25   27   24
 5    26   18    0
 5    27   25   28
 5    28   25   16
 5    18   28   16
 5    26   28   18
 5    26   42   27
 5    32   26    0
 5    27   41   24
 5    26   32   42
 5    42   32   33
 5    41   42   33
 5    27   42   41
