% Problem dimension
NDIME= 3    
%
% Inner element connectivity
%
NELEM= 6    
10     5    4    0    2    0
10     4    1    0    2    1
10     5    4    2    7    2
10     7    5    0    2    3
10     6    2    4    7    4
10     3    7    0    2    5
%
% Node coordinates
%
NPOIN= 8    
       1.000000000000000        0.000000000000000        0.000000000000000    0
       1.000000000000000        0.000000000000000        1.000000000000000    1
       1.000000000000000        1.000000000000000        1.000000000000000    2
       1.000000000000000        1.000000000000000        0.000000000000000    3
       0.000000000000000        0.000000000000000        1.000000000000000    4
       0.000000000000000        0.000000000000000        0.000000000000000    5
       0.000000000000000        1.000000000000000        1.000000000000000    6
       0.000000000000000        1.000000000000000        0.000000000000000    7
%
% Boundary elements
%
NMARK= 3    
MARKER_TAG= fixed
MARKER_ELEMS= 2    
 5     7    0    3
 5     5    0    7
MARKER_TAG= pressure
MARKER_ELEMS= 2    
 5     4    6    2
 5     1    4    2
MARKER_TAG= Unspecified
MARKER_ELEMS= 10   
 5     0    1    2
 5     2    3    0
 5     4    1    0
 5     5    4    0
 5     7    3    2
 5     7    4    5
 5     7    6    4
 5     7    2    6
